<?xml version="1.0" encoding="UTF-8"?><svg id="Layer_1" xmlns="http://www.w3.org/2000/svg" viewBox="0 0 985.19 154.7"><defs><style>.cls-1{fill:#ffae00;}.cls-2{isolation:isolate;}.cls-3{fill:#adadad;}</style></defs><path class="cls-1" d="m275,92.2c-5.9-5.1-12.1-10-18.3-14.8,6.2-4.7,12.3-9.7,18.3-14.8,21.7-18.8,41-39.8,57.8-62.6h-70.3c-53.4,56-126.5,92.3-207.9,99V0H0v154.7h27.2c63.5,0,125.6-16,180.6-45.8,19.8,13.2,38.1,28.6,54.6,45.8h70.3c-16.7-22.8-36-43.8-57.7-62.5Z"/><g class="cls-2"><path class="cls-3" d="m371.28,56.46h14.03v20.54l17.43-20.54h16.63l-19.16,21.77,19.81,28.85h-16.85l-12.73-18.8-5.13,5.71v13.09h-14.03v-50.62Z"/><path class="cls-3" d="m435.79,84.88v-28.42h14.25v28.13c0,7.3,3.69,10.77,9.33,10.77s9.33-3.33,9.33-10.41v-28.49h14.25v28.06c0,16.34-9.33,23.5-23.72,23.5s-23.43-7.3-23.43-23.14Z"/><path class="cls-3" d="m505.21,56.46h25.96c6.36,0,10.85,1.59,13.81,4.56,2.02,2.02,3.25,4.7,3.25,8.17v.15c0,5.86-3.33,9.33-7.81,11.28,6.15,2.02,10.05,5.5,10.05,12.37v.14c0,8.68-7.09,13.96-19.16,13.96h-26.1v-50.62Zm22.49,20.17c4.27,0,6.65-1.45,6.65-4.41v-.14c0-2.75-2.17-4.34-6.36-4.34h-9.11v8.89h8.82Zm2.03,19.16c4.27,0,6.72-1.66,6.72-4.63v-.14c0-2.75-2.17-4.56-6.87-4.56h-10.7v9.33h10.85Z"/><path class="cls-3" d="m570.88,56.46h40.71v11.93h-26.83v7.67h24.3v11.06h-24.3v8.03h27.19v11.93h-41.07v-50.62Z"/><path class="cls-3" d="m633.07,56.46h23.93c7.74,0,13.09,2.02,16.49,5.5,2.96,2.89,4.48,6.8,4.48,11.79v.14c0,7.74-4.12,12.87-10.41,15.55l12.08,17.64h-16.2l-10.2-15.33h-6.15v15.33h-14.03v-50.62Zm23.28,24.3c4.77,0,7.52-2.31,7.52-6v-.14c0-3.98-2.89-6-7.59-6h-9.18v12.15h9.26Z"/><path class="cls-3" d="m715.66,56.1h13.52l21.55,50.98h-15.04l-3.69-9.04h-19.52l-3.62,9.04h-14.75l21.55-50.98Zm12.29,31.02l-5.64-14.39-5.71,14.39h11.35Z"/><path class="cls-3" d="m769.61,56.46h14.03v38.33h24.51v12.29h-38.54v-50.62Z"/><path class="cls-3" d="m828.41,56.46h14.1v50.62h-14.1v-50.62Z"/><path class="cls-3" d="m865.72,56.46h13.09l20.83,26.76v-26.76h13.88v50.62h-12.29l-21.62-27.77v27.77h-13.88v-50.62Z"/><path class="cls-3" d="m936.45,56.46h14.03v20.54l17.43-20.54h16.63l-19.16,21.77,19.81,28.85h-16.85l-12.73-18.8-5.13,5.71v13.09h-14.03v-50.62Z"/></g></svg>